<svg xmlns="http://www.w3.org/2000/svg" xmlns:xlink="http://www.w3.org/1999/xlink" version="1.1" width="250" height="80" viewBox="0 0 500 100" xml:space="preserve">
<desc>Created with Fabric.js 3.5.0</desc>
<defs>
</defs>
<rect x="0" y="0" width="100%" height="100%" fill="rgba(255,255,255,0)"/>
<g transform="matrix(1 0 0 1 84.8988 58.13)" style="" id="583553">
		
<path xml:space="preserve" font-family="ABeeZee" font-size="102" font-style="normal" font-weight="normal" style="stroke: none; stroke-width: 1; stroke-dasharray: none; stroke-linecap: butt; stroke-dashoffset: 0; stroke-linejoin: miter; stroke-miterlimit: 4; is-custom-font: none; font-file-url: none; fill: rgb(217,98,32); fill-rule: nonzero; opacity: 1; white-space: pre;" d="M-69.77-30.79L-69.77-39.36L-16.22-39.36L-16.22-30.79L-38.15-30.79L-38.15 32.04L-47.84 32.04L-47.84-30.79L-69.77-30.79ZM-12.14 26.02L-7.24 17.86Q-3.57 20.92 1.02 22.86Q5.61 24.80 11.73 24.80L11.73 24.80Q19.07 24.80 23.36 21.74Q27.64 18.68 27.64 13.48L27.64 13.48Q27.64 11.34 27.03 9.50Q26.42 7.66 24.63 5.98Q22.85 4.30 19.64 2.62Q16.42 0.93 11.32-1.01L11.32-1.01Q5.81-3.15 1.99-5.24Q-1.84-7.33-4.18-9.83Q-6.53-12.33-7.55-15.34Q-8.57-18.35-8.57-22.22L-8.57-22.22Q-8.57-26.00-6.99-29.36Q-5.41-32.73-2.29-35.23Q0.82-37.73 5.36-39.15Q9.89-40.58 15.71-40.58L15.71-40.58Q22.03-40.58 27.03-39.31Q32.03-38.03 36.92-35.69L36.92-35.69L33.35-27.42Q29.89-29.46 25.25-30.84Q20.60-32.22 15.50-32.22L15.50-32.22Q8.77-32.22 4.90-29.62Q1.02-27.02 1.02-22.73L1.02-22.73Q1.02-20.69 1.58-19.11Q2.14-17.53 3.83-16.05Q5.51-14.57 8.52-13.04Q11.53-11.51 16.52-9.68L16.52-9.68Q22.44-7.43 26.52-5.09Q30.60-2.74 33.05-0.09Q35.50 2.56 36.57 5.62Q37.64 8.68 37.64 12.36L37.64 12.36Q37.64 17.35 35.70 21.23Q33.76 25.11 30.35 27.81Q26.93 30.51 22.13 31.89Q17.34 33.27 11.73 33.27L11.73 33.27Q4.28 33.27-1.84 31.28Q-7.96 29.29-12.14 26.02L-12.14 26.02ZM61.61 32.04L51.92 32.04L51.92-39.36L61.61-39.36L61.61 32.04Z"/></g>
<g transform="matrix(1 0 0 1 289.9365 75.4617)" style="" id="367054">
		
<path xml:space="preserve" font-family="Lato" font-size="48" font-style="normal" font-weight="bold" style="stroke: none; stroke-width: 1; stroke-dasharray: none; stroke-linecap: butt; stroke-dashoffset: 0; stroke-linejoin: miter; stroke-miterlimit: 4; is-custom-font: none; font-file-url: none; fill: rgb(22,77,115); fill-rule: nonzero; opacity: 1; white-space: pre;" d="M-129.22-19.63L-101.84-19.63L-101.84-14.32L-112.28-14.32L-112.28 15.08L-118.74 15.08L-118.74-14.32L-129.22-14.32L-129.22-19.63ZM-92.79-9.93L-92.79-9.93Q-90.46-9.93-88.51-9.19Q-86.55-8.44-85.14-7.01Q-83.72-5.59-82.93-3.51Q-82.14-1.43-82.14 1.23L-82.14 1.23Q-82.14 1.90-82.20 2.35Q-82.26 2.79-82.41 3.04Q-82.57 3.29-82.83 3.40Q-83.10 3.51-83.50 3.51L-83.50 3.51L-98.72 3.51Q-98.46 7.30-96.68 9.08Q-94.90 10.85-91.98 10.85L-91.98 10.85Q-90.54 10.85-89.49 10.52Q-88.45 10.18-87.67 9.77Q-86.89 9.37-86.30 9.03Q-85.71 8.69-85.16 8.69L-85.16 8.69Q-84.80 8.69-84.54 8.84Q-84.27 8.98-84.08 9.25L-84.08 9.25L-82.35 11.41Q-83.34 12.56-84.56 13.34Q-85.78 14.12-87.12 14.59Q-88.45 15.05-89.83 15.25Q-91.21 15.44-92.50 15.44L-92.50 15.44Q-95.07 15.44-97.28 14.59Q-99.49 13.73-101.12 12.07Q-102.75 10.40-103.69 7.94Q-104.62 5.48-104.62 2.24L-104.62 2.24Q-104.62-0.28-103.81-2.50Q-102.99-4.72-101.47-6.37Q-99.94-8.01-97.75-8.97Q-95.55-9.93-92.79-9.93ZM-92.67-5.68L-92.67-5.68Q-95.26-5.68-96.73-4.22Q-98.19-2.75-98.60-0.07L-98.60-0.07L-87.46-0.07Q-87.46-1.22-87.78-2.24Q-88.09-3.26-88.74-4.03Q-89.38-4.79-90.37-5.24Q-91.35-5.68-92.67-5.68ZM-61.35-6.88L-62.70-4.75Q-62.94-4.36-63.20-4.21Q-63.46-4.05-63.87-4.05L-63.87-4.05Q-64.30-4.05-64.80-4.29Q-65.29-4.53-65.94-4.83Q-66.58-5.13-67.41-5.37Q-68.24-5.61-69.37-5.61L-69.37-5.61Q-71.12-5.61-72.13-4.87Q-73.14-4.12-73.14-2.92L-73.14-2.92Q-73.14-2.13-72.62-1.59Q-72.10-1.05-71.25-0.64Q-70.40-0.23-69.32 0.09Q-68.24 0.41-67.11 0.80Q-65.98 1.18-64.90 1.67Q-63.82 2.17-62.97 2.92Q-62.12 3.68-61.60 4.73Q-61.09 5.79-61.09 7.28L-61.09 7.28Q-61.09 9.05-61.74 10.55Q-62.38 12.05-63.63 13.15Q-64.88 14.24-66.72 14.85Q-68.55 15.46-70.93 15.46L-70.93 15.46Q-72.20 15.46-73.41 15.23Q-74.62 15.01-75.74 14.60Q-76.86 14.19-77.80 13.64Q-78.75 13.09-79.47 12.44L-79.47 12.44L-78.10 10.18Q-77.84 9.77-77.48 9.56Q-77.12 9.34-76.57 9.34L-76.57 9.34Q-76.02 9.34-75.52 9.65Q-75.03 9.97-74.38 10.33Q-73.74 10.69-72.86 11.00Q-71.98 11.31-70.64 11.31L-70.64 11.31Q-69.58 11.31-68.83 11.06Q-68.07 10.81-67.58 10.40Q-67.09 9.99-66.86 9.45Q-66.63 8.91-66.63 8.33L-66.63 8.33Q-66.63 7.47-67.15 6.92Q-67.66 6.37-68.52 5.96Q-69.37 5.55-70.46 5.23Q-71.55 4.90-72.69 4.52Q-73.83 4.13-74.92 3.62Q-76.02 3.10-76.87 2.31Q-77.72 1.52-78.24 0.37Q-78.75-0.79-78.75-2.42L-78.75-2.42Q-78.75-3.93-78.15-5.30Q-77.55-6.67-76.39-7.69Q-75.22-8.71-73.48-9.32Q-71.74-9.93-69.46-9.93L-69.46-9.93Q-66.92-9.93-64.83-9.09Q-62.74-8.25-61.35-6.88L-61.35-6.88ZM-48.25 15.46L-48.25 15.46Q-51.44 15.46-53.17 13.65Q-54.90 11.84-54.90 8.65L-54.90 8.65L-54.90-5.11L-57.39-5.11Q-57.87-5.11-58.22-5.42Q-58.57-5.73-58.57-6.35L-58.57-6.35L-58.57-8.71L-54.61-9.35L-53.36-16.07Q-53.26-16.55-52.92-16.82Q-52.57-17.08-52.04-17.08L-52.04-17.08L-48.97-17.08L-48.97-9.33L-42.49-9.33L-42.49-5.11L-48.97-5.11L-48.97 8.24Q-48.97 9.39-48.39 10.04Q-47.82 10.69-46.86 10.69L-46.86 10.69Q-46.30 10.69-45.93 10.55Q-45.56 10.42-45.28 10.28Q-45.01 10.13-44.79 10.00Q-44.58 9.87-44.36 9.87L-44.36 9.87Q-44.10 9.87-43.93 10.00Q-43.76 10.13-43.57 10.40L-43.57 10.40L-41.79 13.28Q-43.09 14.36-44.77 14.91Q-46.45 15.46-48.25 15.46ZM-31.09-19.63L-3.70-19.63L-3.70-14.32L-14.14-14.32L-14.14 15.08L-20.60 15.08L-20.60-14.32L-31.09-14.32L-31.09-19.63ZM2.15 15.08L-3.78 15.08L-3.78-9.55L-0.30-9.55Q0.62-9.55 0.98-9.21Q1.34-8.87 1.46-8.06L1.46-8.06L1.82-5.08Q3.14-7.36 4.91-8.68Q6.69-10.00 8.90-10.00L8.90-10.00Q10.72-10.00 11.92-9.16L11.92-9.16L11.15-4.72Q11.08-4.29 10.84-4.11Q10.60-3.93 10.19-3.93L10.19-3.93Q9.83-3.93 9.21-4.10Q8.58-4.27 7.55-4.27L7.55-4.27Q5.70-4.27 4.38-3.25Q3.06-2.23 2.15-0.26L2.15-0.26L2.15 15.08ZM34.43-0.47L34.43 15.08L31.77 15.08Q30.93 15.08 30.45 14.83Q29.97 14.57 29.73 13.81L29.73 13.81L29.20 12.05Q28.26 12.89 27.36 13.53Q26.46 14.17 25.50 14.60Q24.54 15.03 23.46 15.25Q22.38 15.46 21.06 15.46L21.06 15.46Q19.50 15.46 18.18 15.04Q16.86 14.62 15.92 13.78Q14.97 12.94 14.44 11.69Q13.91 10.45 13.91 8.79L13.91 8.79Q13.91 7.40 14.64 6.04Q15.38 4.69 17.08 3.59Q18.78 2.50 21.62 1.78Q24.45 1.06 28.65 0.97L28.65 0.97L28.65-0.47Q28.65-2.95 27.60-4.13Q26.56-5.32 24.57-5.32L24.57-5.32Q23.13-5.32 22.17-4.99Q21.21-4.65 20.50-4.23Q19.79-3.81 19.19-3.47Q18.59-3.14 17.87-3.14L17.87-3.14Q17.27-3.14 16.84-3.45Q16.41-3.76 16.14-4.22L16.14-4.22L15.06-6.11Q19.31-10.00 25.31-10.00L25.31-10.00Q27.47-10.00 29.16-9.29Q30.86-8.59 32.03-7.33Q33.21-6.07 33.82-4.31Q34.43-2.56 34.43-0.47L34.43-0.47ZM22.91 11.38L22.91 11.38Q23.82 11.38 24.59 11.21Q25.36 11.05 26.04 10.71Q26.73 10.37 27.36 9.88Q28.00 9.39 28.65 8.72L28.65 8.72L28.65 4.57Q26.06 4.69 24.32 5.01Q22.58 5.33 21.52 5.84Q20.46 6.34 20.02 7.01Q19.58 7.69 19.58 8.48L19.58 8.48Q19.58 10.04 20.50 10.71Q21.42 11.38 22.91 11.38ZM59.13-6.50L57.57-4.34Q57.30-4.00 57.05-3.81Q56.80-3.62 56.32-3.62L56.32-3.62Q55.86-3.62 55.43-3.89Q55.00-4.17 54.40-4.52Q53.80-4.87 52.97-5.14Q52.14-5.42 50.92-5.42L50.92-5.42Q49.36-5.42 48.18-4.85Q47.01-4.29 46.23-3.23Q45.45-2.18 45.06-0.68Q44.68 0.82 44.68 2.72L44.68 2.72Q44.68 4.69 45.10 6.22Q45.52 7.76 46.31 8.80Q47.10 9.85 48.23 10.39Q49.36 10.93 50.78 10.93L50.78 10.93Q52.19 10.93 53.07 10.58Q53.94 10.23 54.54 9.81Q55.14 9.39 55.59 9.04Q56.03 8.69 56.58 8.69L56.58 8.69Q57.30 8.69 57.66 9.25L57.66 9.25L59.37 11.41Q58.38 12.56 57.23 13.34Q56.08 14.12 54.84 14.59Q53.61 15.05 52.29 15.25Q50.97 15.44 49.67 15.44L49.67 15.44Q47.39 15.44 45.38 14.59Q43.36 13.73 41.86 12.10Q40.36 10.47 39.48 8.11Q38.61 5.74 38.61 2.72L38.61 2.72Q38.61 0.01 39.39-2.31Q40.17-4.63 41.68-6.32Q43.19-8.01 45.42-8.97Q47.66-9.93 50.56-9.93L50.56-9.93Q53.32-9.93 55.40-9.04Q57.47-8.15 59.13-6.50L59.13-6.50ZM63.23-20.59L69.16-20.59L69.16-0.16L70.26-0.16Q70.86-0.16 71.20-0.33Q71.54-0.50 71.92-0.95L71.92-0.95L78.04-8.51Q78.45-8.99 78.90-9.27Q79.36-9.55 80.10-9.55L80.10-9.55L85.53-9.55L77.87-0.40Q77.46 0.10 77.03 0.52Q76.60 0.94 76.10 1.25L76.10 1.25Q76.60 1.61 76.98 2.09Q77.37 2.57 77.75 3.13L77.75 3.13L85.96 15.08L80.61 15.08Q79.91 15.08 79.43 14.84Q78.95 14.60 78.57 14.02L78.57 14.02L72.30 4.69Q71.94 4.13 71.58 3.97Q71.22 3.80 70.50 3.80L70.50 3.80L69.16 3.80L69.16 15.08L63.23 15.08L63.23-20.59ZM98.37-9.93L98.37-9.93Q100.70-9.93 102.65-9.19Q104.61-8.44 106.02-7.01Q107.44-5.59 108.23-3.51Q109.02-1.43 109.02 1.23L109.02 1.23Q109.02 1.90 108.96 2.35Q108.90 2.79 108.75 3.04Q108.59 3.29 108.33 3.40Q108.06 3.51 107.66 3.51L107.66 3.51L92.44 3.51Q92.70 7.30 94.48 9.08Q96.26 10.85 99.18 10.85L99.18 10.85Q100.62 10.85 101.67 10.52Q102.71 10.18 103.49 9.77Q104.27 9.37 104.86 9.03Q105.45 8.69 106.00 8.69L106.00 8.69Q106.36 8.69 106.62 8.84Q106.89 8.98 107.08 9.25L107.08 9.25L108.81 11.41Q107.82 12.56 106.60 13.34Q105.38 14.12 104.04 14.59Q102.71 15.05 101.33 15.25Q99.95 15.44 98.66 15.44L98.66 15.44Q96.09 15.44 93.88 14.59Q91.67 13.73 90.04 12.07Q88.41 10.40 87.47 7.94Q86.54 5.48 86.54 2.24L86.54 2.24Q86.54-0.28 87.35-2.50Q88.17-4.72 89.69-6.37Q91.22-8.01 93.41-8.97Q95.61-9.93 98.37-9.93ZM98.49-5.68L98.49-5.68Q95.90-5.68 94.43-4.22Q92.97-2.75 92.56-0.07L92.56-0.07L103.70-0.07Q103.70-1.22 103.38-2.24Q103.07-3.26 102.42-4.03Q101.78-4.79 100.79-5.24Q99.81-5.68 98.49-5.68ZM119.78 15.08L113.85 15.08L113.85-9.55L117.33-9.55Q118.24-9.55 118.60-9.21Q118.96-8.87 119.08-8.06L119.08-8.06L119.44-5.08Q120.76-7.36 122.54-8.68Q124.31-10.00 126.52-10.00L126.52-10.00Q128.34-10.00 129.54-9.16L129.54-9.16L128.78-4.72Q128.70-4.29 128.46-4.11Q128.22-3.93 127.82-3.93L127.82-3.93Q127.46-3.93 126.83-4.10Q126.21-4.27 125.18-4.27L125.18-4.27Q123.33-4.27 122.01-3.25Q120.69-2.23 119.78-0.26L119.78-0.26L119.78 15.08Z"/></g>
</svg>